PathFileType	4	(X/Y/Z)	/Users/itak/Documents/Research/Walk-IL/dataset/trc/00223_00009.trc
DataRate	CameraRate	NumFrames	NumMarkers	Units	OrigDataRate	OrigDataStartFrame	OrigNumFrames
100.000000	100.000000	4	53	mm	100.000000	0	492
Frame#	Time	RPSI			LPSI			L3			STRN			T10			C7			CLAV			RBAK			LBAK			LSHO			LUPA			LAEL			LAOL			LWTS			LWPS			LFRA			LIFD			LHPS			LHTS			RSHO			RUPA			RAEL			RAOL			RWTS			RWPS			RFRA			RIFD			RHTS			RHPS			RBHD			LFHD			RFHD			LBHD			LHIP			RHIP			RASI			LASI			LKNE			LTHI			LANK			LTIP			LTOE			LMT1			LMT5			LHEE			RKNE			RANK			RTIP			RTOE			RMT1			RMT5			RHEE			RTHI			
		X1	Y1	Z1	X2	Y2	Z2	X3	Y3	Z3	X4	Y4	Z4	X5	Y5	Z5	X6	Y6	Z6	X7	Y7	Z7	X8	Y8	Z8	X9	Y9	Z9	X10	Y10	Z10	X11	Y11	Z11	X12	Y12	Z12	X13	Y13	Z13	X14	Y14	Z14	X15	Y15	Z15	X16	Y16	Z16	X17	Y17	Z17	X18	Y18	Z18	X19	Y19	Z19	X20	Y20	Z20	X21	Y21	Z21	X22	Y22	Z22	X23	Y23	Z23	X24	Y24	Z24	X25	Y25	Z25	X26	Y26	Z26	X27	Y27	Z27	X28	Y28	Z28	X29	Y29	Z29	X30	Y30	Z30	X31	Y31	Z31	X32	Y32	Z32	X33	Y33	Z33	X34	Y34	Z34	X35	Y35	Z35	X36	Y36	Z36	X37	Y37	Z37	X38	Y38	Z38	X39	Y39	Z39	X40	Y40	Z40	X41	Y41	Z41	X42	Y42	Z42	X43	Y43	Z43	X44	Y44	Z44	X45	Y45	Z45	X46	Y46	Z46	X47	Y47	Z47	X48	Y48	Z48	X49	Y49	Z49	X50	Y50	Z50	X51	Y51	Z51	X52	Y52	Z52	X53	Y53	Z53	

1	0	-1216.10498046875	1055.686767578125	-122.2865753173828	-1220.111938476562	1061.015014648438	-1.906708717346191	-1209.884643554688	1133.865112304688	-46.9208984375	-1453.4443359375	1326.35595703125	-47.08528518676758	-1200.8251953125	1258.192749023438	-57.83139419555664	-1253.75048828125	1522.03125	-55.29024887084961	-1421.57568359375	1441.835815429688	-49.94162368774414	-1182.439208984375	1381.014526367188	-128.5880584716797	-1233.37353515625	1482.659790039062	55.63645553588867	-1320.653686523438	1486.901000976562	115.2795562744141	-1293.704345703125	1366.426635742188	193.1623840332031	-1318.112548828125	1155.173828125	216.4739532470703	-1245.450317382812	1137.65966796875	169.2850799560547	-1416.787841796875	926.582763671875	151.6790771484375	-1393.442016601562	905.69482421875	230.2507019042969	-1345.524536132812	1048.754028320312	227.488037109375	-1429.307983398438	731.5023803710938	154.0514068603516	-1412.451538085938	818.6947021484375	223.1049957275391	-1454.525268554688	825.1461181640625	170.2585144042969	-1316.2197265625	1480.069091796875	-221.8177947998047	-1300.487548828125	1413.1484375	-288.2182312011719	-1297.44873046875	1130.400756835938	-320.7237854003906	-1256.12255859375	1122.897338867188	-234.8946075439453	-1438.179321289062	922.7440185546875	-266.1376647949219	-1390.148193359375	905.275634765625	-332.8299560546875	-1327.490234375	1063.132690429688	-330.000732421875	-1461.309204101562	730.7158813476562	-255.5765380859375	-1483.68017578125	803.9639282226562	-276.3901672363281	-1434.344360351562	799.7444458007812	-329.4014892578125	-1271.30908203125	1667.418090820312	-98.58705902099609	-1468.048461914062	1747.56787109375	-14.51514434814453	-1461.748901367188	1746.44189453125	-114.3187637329102	-1322.119140625	1683.114135742188	31.5460262298584	-1322.554565429688	995.9325561523438	136.1512756347656	-1309.048828125	1014.331787109375	-231.3598327636719	-1406.903686523438	1056.348388671875	-195.5473480224609	-1422.465942382812	1037.601196289062	84.78781890869141	-1351.191772460938	509.3384399414062	86.17799377441406	-1351.655639648438	653.1295166015625	120.6458435058594	-1273.62939453125	40.16732025146484	68.64662170410156	-1305.216674804688	287.5478210449219	89.55638885498047	-1488.587158203125	46.28324890136719	11.10989856719971	-1419.491577148438	41.59904861450195	-31.70329856872559	-1401.431030273438	39.31237411499023	84.29039001464844	-1212.070678710938	47.62874984741211	16.91461563110352	-1348.825439453125	520.8751220703125	-192.1359100341797	-1290.884887695312	40.24528884887695	-163.5881805419922	-1356.183959960938	406.1555480957031	-174.5368957519531	-1503.208740234375	47.28590774536133	-125.862663269043	-1448.432495117188	44.80875396728516	-81.57798767089844	-1399.686279296875	40.89641571044922	-192.5100860595703	-1229.795532226562	40.97980880737305	-102.6144714355469	nan	nan	nan	
2	0.01	-1216.048706054688	1055.70068359375	-122.3788909912109	-1220.148559570312	1061.0078125	-2.006942749023438	-1209.878051757812	1133.85693359375	-46.99248123168945	-1453.43359375	1326.332641601562	-47.10817337036133	-1200.78125	1258.2119140625	-57.90859222412109	-1253.770751953125	1522.03564453125	-55.33994674682617	-1421.593872070312	1441.852783203125	-49.98435211181641	-1182.395141601562	1381.033935546875	-128.6283111572266	-1233.373901367188	1482.670166015625	55.57777786254883	-1320.625244140625	1486.897827148438	115.2235870361328	-1293.677856445312	1366.429809570312	193.1160278320312	-1318.073364257812	1155.1806640625	216.43701171875	-1245.402465820312	1137.658325195312	169.2173919677734	-1416.71240234375	926.5552368164062	151.6443481445312	-1393.416259765625	905.6973266601562	230.2608337402344	-1345.476318359375	1048.758911132812	227.4784240722656	-1429.222290039062	731.423828125	154.1410522460938	-1412.400756835938	818.6753540039062	223.1584014892578	-1454.480712890625	825.162109375	170.2585144042969	-1316.275756835938	1480.046875	-221.8919219970703	-1300.487915039062	1413.129150390625	-288.2505798339844	-1297.37060546875	1130.376586914062	-320.7252197265625	-1256.0380859375	1122.904174804688	-234.9036712646484	-1437.97216796875	922.65478515625	-266.0478820800781	-1389.940673828125	905.1919555664062	-332.7648620605469	-1327.409545898438	1063.090209960938	-329.9910888671875	-1461.044555664062	730.6135864257812	-255.4784851074219	-1483.376220703125	803.8263549804688	-276.2470397949219	-1434.092163085938	799.6384887695312	-329.3011169433594	-1271.47314453125	1667.515991210938	-98.70280456542969	-1468.26171875	1747.489379882812	-14.53204727172852	-1461.941040039062	1746.331909179688	-114.3333435058594	-1322.230712890625	1683.153198242188	31.46860122680664	-1322.528198242188	995.926025390625	136.1230926513672	-1309.073486328125	1014.321533203125	-231.43017578125	-1406.88525390625	1056.339965820312	-195.5704650878906	-1422.37451171875	1037.603393554688	84.73594665527344	-1351.189331054688	509.3484191894531	86.15313720703125	-1351.625854492188	653.1414794921875	120.6193237304688	-1273.62890625	40.16709899902344	68.64676666259766	-1305.22900390625	287.5421752929688	89.55065155029297	-1488.58837890625	46.28559494018555	11.10387706756592	-1419.49853515625	41.61122512817383	-31.70786666870117	-1401.426391601562	39.31949996948242	84.29979705810547	-1212.078979492188	47.62746429443359	16.90935516357422	-1348.84765625	520.8741455078125	-192.1609039306641	-1290.87939453125	40.24532699584961	-163.5946655273438	-1356.21533203125	406.1579284667969	-174.5661010742188	-1503.240234375	47.33098602294922	-125.8674240112305	-1448.433349609375	44.81087112426758	-81.57954406738281	-1399.627319335938	40.81674194335938	-192.5064544677734	-1229.804321289062	40.97785568237305	-102.6113662719727	nan	nan	nan	
3	0.02	-1215.968994140625	1055.723510742188	-122.5000534057617	-1220.193603515625	1060.996337890625	-2.136521577835083	-1209.861572265625	1133.846313476562	-47.1027717590332	-1453.419921875	1326.303100585938	-47.14149856567383	-1200.725952148438	1258.237426757812	-58.00384902954102	-1253.79931640625	1522.042846679688	-55.40078353881836	-1421.619018554688	1441.874267578125	-50.03815841674805	-1182.34423828125	1381.057006835938	-128.6797637939453	-1233.375	1482.681884765625	55.50650787353516	-1320.5966796875	1486.893432617188	115.1563415527344	-1293.647094726562	1366.431884765625	193.0587921142578	-1318.020751953125	1155.188354492188	216.3947448730469	-1245.346801757812	1137.6572265625	169.1367340087891	-1416.620727539062	926.5208740234375	151.6075134277344	-1393.361328125	905.698486328125	230.2843780517578	-1345.4091796875	1048.76513671875	227.4668273925781	-1429.090942382812	731.3267822265625	154.2605133056641	-1412.31591796875	818.6398315429688	223.2404022216797	-1454.420043945312	825.1756591796875	170.2611389160156	-1316.353515625	1480.018310546875	-221.9868011474609	-1300.491088867188	1413.105346679688	-288.2932739257812	-1297.2626953125	1130.345336914062	-320.7231750488281	-1255.92333984375	1122.918701171875	-234.9183807373047	-1437.699462890625	922.5401000976562	-265.9404602050781	-1389.67138671875	905.08544921875	-332.6897888183594	-1327.294799804688	1063.037719726562	-329.9776611328125	-1460.679443359375	730.47802734375	-255.3595275878906	-1482.9912109375	803.6517333984375	-276.0838623046875	-1433.751708984375	799.5043334960938	-329.1809692382812	-1271.672973632812	1667.634155273438	-98.84396362304688	-1468.508666992188	1747.381225585938	-14.55763912200928	-1462.176025390625	1746.201904296875	-114.3479766845703	-1322.37548828125	1683.200439453125	31.37275695800781	-1322.496215820312	995.91748046875	136.0836944580078	-1309.11083984375	1014.304992675781	-231.5222015380859	-1406.862915039062	1056.3310546875	-195.6014099121094	-1422.266967773438	1037.608154296875	84.67279815673828	-1351.187744140625	509.3604125976562	86.119873046875	-1351.590942382812	653.1565551757812	120.586555480957	-1273.629272460938	40.16775894165039	68.64844512939453	-1305.2431640625	287.5342102050781	89.54837799072266	-1488.5888671875	46.2867546081543	11.09892559051514	-1419.502319335938	41.61910629272461	-31.71242904663086	-1401.422729492188	39.32716751098633	84.30894470214844	-1212.087524414062	47.62642669677734	16.90323257446289	-1348.882080078125	520.873046875	-192.1964874267578	-1290.873779296875	40.24440002441406	-163.6012573242188	-1356.246337890625	406.1567993164062	-174.5985565185547	-1503.264770507812	47.36797714233398	-125.8703536987305	-1448.434204101562	44.81314086914062	-81.58143615722656	-1399.577514648438	40.74828338623047	-192.5039672851562	-1229.814331054688	40.97671890258789	-102.6082458496094	nan	nan	nan	
4	0.03	-1215.866333007812	1055.755615234375	-122.6454925537109	-1220.244018554688	1060.980712890625	-2.290485382080078	-1209.836669921875	1133.832763671875	-47.25165557861328	-1453.404296875	1326.268432617188	-47.18549728393555	-1200.661865234375	1258.268676757812	-58.11201477050781	-1253.83642578125	1522.0537109375	-55.46966171264648	-1421.651000976562	1441.8994140625	-50.10168838500977	-1182.290405273438	1381.081909179688	-128.7403106689453	-1233.376831054688	1482.694213867188	55.42621612548828	-1320.572875976562	1486.888305664062	115.0820007324219	-1293.614868164062	1366.432495117188	192.9934844970703	-1317.95458984375	1155.196411132812	216.3509826660156	-1245.287353515625	1137.6572265625	169.0489959716797	-1416.515502929688	926.4801025390625	151.5749664306641	-1393.267333984375	905.6959838867188	230.3264465332031	-1345.322875976562	1048.772216796875	227.4536590576172	-1428.905883789062	731.2183227539062	154.4054718017578	-1412.186401367188	818.583984375	223.3552856445312	-1454.339599609375	825.1798706054688	170.2696838378906	-1316.4521484375	1479.984497070312	-222.0988006591797	-1300.498291015625	1413.07861328125	-288.3455810546875	-1297.12548828125	1130.30908203125	-320.7172546386719	-1255.778442382812	1122.942749023438	-234.9398345947266	-1437.367553710938	922.40380859375	-265.8240051269531	-1389.349731445312	904.9608154296875	-332.6121826171875	-1327.142944335938	1062.97802734375	-329.9602355957031	-1460.212524414062	730.3118896484375	-255.2265472412109	-1482.53759765625	803.4473266601562	-275.9143676757812	-1433.327392578125	799.3475341796875	-329.0498962402344	-1271.8955078125	1667.765380859375	-99.00138092041016	-1468.7705078125	1747.244873046875	-14.59130382537842	-1462.44287109375	1746.061401367188	-114.3606109619141	-1322.551391601562	1683.253051757812	31.26354217529297	-1322.459350585938	995.9078369140625	136.0321350097656	-1309.162719726562	1014.281311035156	-231.6339416503906	-1406.838012695312	1056.322387695312	-195.6401062011719	-1422.151977539062	1037.615966796875	84.60177612304688	-1351.187866210938	509.3735656738281	86.07828521728516	-1351.554077148438	653.1741943359375	120.548828125	-1273.631469726562	40.16963195800781	68.65267181396484	-1305.257934570312	287.5240173339844	89.55023193359375	-1488.588623046875	46.28635025024414	11.09550380706787	-1419.50244140625	41.62155532836914	-31.71615982055664	-1401.420532226562	39.33455276489258	84.31684875488281	-1212.095092773438	47.62535095214844	16.89689254760742	-1348.9306640625	520.8721923828125	-192.2431488037109	-1290.86865234375	40.24245452880859	-163.60693359375	-1356.274047851562	406.1508178710938	-174.6322784423828	-1503.278198242188	47.39139175415039	-125.8709411621094	-1448.434326171875	44.81461715698242	-81.58384704589844	-1399.546264648438	40.70226287841797	-192.5034942626953	-1229.824462890625	40.97650146484375	-102.60546875	nan	nan	nan	
